<svg width="1921" height="2307" viewBox="0 0 1921 2307" fill="none" xmlns="http://www.w3.org/2000/svg">
<circle cx="1389.04" cy="532.234" r="528.935" transform="rotate(-0.313614 1389.04 532.234)" fill="#C87072"/>
<circle cx="993.32" cy="1171.9" r="191.317" transform="rotate(11.6995 993.32 1171.9)" fill="#E79C00"/>
<mask id="path-3-inside-1" fill="white">
<path d="M910.297 312.652C910.297 318.147 908.282 323.093 904.252 327.489C900.589 331.885 895.826 334.083 889.965 334.083C884.47 334.083 879.707 332.251 875.678 328.588C871.648 324.925 869.267 319.979 868.534 313.751C868.168 312.286 867.252 305.326 865.786 292.87C864.688 280.414 861.024 265.211 854.796 247.261C848.935 228.944 839.776 209.528 827.321 189.013C814.865 168.131 797.647 148.899 775.667 131.314C754.053 113.73 726.578 99.0765 693.241 87.3536C659.904 75.6308 619.423 69.7693 571.799 69.7693C529.67 69.7693 487.175 76.1803 444.313 89.0021C401.818 101.458 360.971 119.225 321.773 142.305C282.574 165.018 245.94 192.31 211.871 224.181C177.801 255.687 148.128 290.489 122.85 328.588C97.9393 366.687 78.157 407.351 63.5034 450.579C49.2162 493.807 42.0725 538.317 42.0725 584.11C42.0725 625.506 47.7508 661.041 59.1073 690.714C70.4638 720.022 86.2164 744.017 106.365 762.7C126.514 781.383 150.143 795.121 177.252 803.913C204.727 812.339 234.218 816.552 265.723 816.552C320.307 816.552 371.228 807.21 418.486 788.527C466.11 769.477 510.071 744.017 550.368 712.145C591.032 679.907 628.032 642.541 661.369 600.045C694.706 557.184 724.563 512.124 750.939 464.866C753.87 420.173 758.999 386.103 766.325 362.658C774.018 338.846 785.375 326.94 800.395 326.94C808.821 326.94 815.781 330.42 821.276 337.38C827.138 344.341 830.068 353.316 830.068 364.306C830.068 376.395 826.955 391.782 820.727 410.465C814.499 429.148 804.974 450.762 792.152 475.307C791.053 492.525 790.504 511.025 790.504 530.807C790.504 559.748 791.603 591.436 793.801 625.872C796.365 660.308 800.212 696.942 805.341 735.774C820.727 728.081 832.633 722.586 841.059 719.289C849.851 715.625 856.262 713.244 860.291 712.145C864.321 710.68 866.885 710.13 867.985 710.497C869.084 710.497 869.999 710.497 870.732 710.497C876.227 710.497 880.99 712.512 885.019 716.541C889.415 720.205 891.613 725.15 891.613 731.378C891.613 735.774 890.331 739.804 887.767 743.467C885.203 746.764 881.722 749.146 877.326 750.611C876.594 750.977 870.183 753.542 858.093 758.304C846.371 762.7 830.618 769.844 810.836 779.735C812.667 799.517 814.133 819.483 815.232 839.631C816.331 859.78 816.88 880.112 816.88 900.627C816.88 948.984 813.4 995.142 806.44 1039.1C799.479 1083.06 787.939 1121.71 771.82 1155.05C756.068 1188.39 735.003 1214.76 708.627 1234.18C682.25 1253.96 649.829 1263.85 611.364 1263.85C592.314 1263.85 574.73 1260.56 558.611 1253.96C542.492 1247.37 528.571 1238.21 516.848 1226.49C505.125 1214.76 495.967 1200.66 489.373 1184.17C482.779 1168.05 479.482 1150.29 479.482 1130.87C479.482 1103.4 484.061 1076.29 493.219 1049.54C502.744 1022.8 515.2 996.974 530.586 972.063C546.339 947.152 564.289 923.523 584.438 901.176C604.587 879.196 625.285 858.864 646.532 840.181C667.78 821.498 688.661 805.012 709.176 790.725C730.058 776.438 749.107 764.898 766.325 756.106C761.563 719.472 757.716 683.571 754.786 648.402C751.855 612.867 750.023 578.431 749.291 545.095C717.419 596.016 682.25 640.892 643.785 679.724C605.686 718.556 565.755 751.16 523.992 777.537C482.229 803.913 439.184 823.879 394.857 837.433C350.897 850.622 307.119 857.216 263.525 857.216C223.96 857.216 188.059 851.354 155.821 839.631C123.583 827.542 95.9244 809.958 72.8451 786.878C49.7657 763.799 31.9982 735.225 19.5427 701.155C7.08714 667.086 0.859375 627.887 0.859375 583.56C0.859375 536.669 8.18616 490.51 22.8397 445.084C37.4933 399.292 57.8251 355.88 83.8352 314.85C109.845 273.454 140.618 235.355 176.153 200.552C212.054 165.75 251.069 135.71 293.198 110.433C335.694 84.7892 380.387 64.8237 427.278 50.5365C474.536 35.8829 522.71 28.5562 571.799 28.5562C619.057 28.5562 660.087 34.0512 694.889 45.0414C729.691 55.6653 759.182 69.403 783.36 86.2546C807.905 102.74 827.687 120.874 842.707 140.656C858.093 160.072 870.183 178.572 878.975 196.156C886.302 211.176 891.98 225.647 896.01 239.568C900.406 253.488 903.519 265.761 905.351 276.385C907.549 287.009 908.831 295.617 909.198 302.212C909.93 308.806 910.297 312.286 910.297 312.652ZM771.271 801.715C752.954 811.973 733.904 824.245 714.122 838.532C694.706 852.453 675.656 867.839 656.973 884.691C638.656 901.543 621.255 919.677 604.77 939.092C588.284 958.508 573.814 978.657 561.359 999.538C548.903 1020.42 539.012 1041.85 531.685 1063.83C524.725 1086.18 521.244 1108.52 521.244 1130.87C521.244 1144.79 523.442 1157.25 527.839 1168.24C532.235 1179.59 538.462 1189.12 546.522 1196.81C554.581 1204.87 564.106 1211.1 575.096 1215.5C586.086 1219.89 598.176 1222.09 611.364 1222.09C663.018 1222.09 703.315 1194.61 732.256 1139.66C761.197 1085.08 775.667 1005.22 775.667 900.077C775.667 884.325 775.301 868.206 774.568 851.721C773.835 835.602 772.736 818.933 771.271 801.715Z"/>
<path d="M1043.28 409.366C1043.28 423.287 1038.33 435.193 1028.44 445.084C1018.92 454.609 1007.19 459.371 993.273 459.371C979.352 459.371 967.446 454.609 957.555 445.084C948.03 435.193 943.267 423.287 943.267 409.366C943.267 402.405 944.549 395.994 947.114 390.133C949.678 383.905 953.158 378.593 957.555 374.197C962.317 369.435 967.629 365.771 973.49 363.207C979.718 360.643 986.312 359.361 993.273 359.361C1000.23 359.361 1006.64 360.643 1012.51 363.207C1018.73 365.771 1024.05 369.435 1028.44 374.197C1033.2 378.593 1036.87 383.905 1039.43 390.133C1042 395.994 1043.28 402.405 1043.28 409.366ZM954.257 731.378C954.257 678.625 957.555 626.056 964.149 573.669C964.881 568.54 967.079 564.144 970.743 560.481C974.772 556.451 979.901 554.436 986.129 554.436C991.624 554.436 996.203 556.634 999.867 561.03C1003.53 565.06 1005.36 569.822 1005.36 575.318C1005.36 577.516 1004.81 584.11 1003.71 595.1C1002.98 606.09 1001.88 619.278 1000.42 634.664C999.317 649.684 998.218 665.803 997.119 683.021C996.386 699.873 996.02 715.442 996.02 729.73C996.02 749.146 997.852 764.898 1001.52 776.987C1005.54 788.71 1010.49 797.869 1016.35 804.463C1022.58 811.057 1028.99 815.453 1035.58 817.651C1042.55 819.849 1049.14 820.948 1055.37 820.948C1065.62 820.948 1076.25 817.285 1087.24 809.958C1098.23 802.631 1109.4 792.374 1120.76 779.185C1132.48 765.997 1144.2 750.245 1155.93 731.928C1167.65 713.244 1179.19 692.546 1190.55 669.833C1192.38 666.17 1194.94 663.422 1198.24 661.59C1201.54 659.392 1205.2 658.293 1209.23 658.293C1215.09 658.293 1219.85 660.491 1223.52 664.888C1227.55 669.284 1229.56 674.046 1229.56 679.175C1229.56 682.838 1228.83 685.952 1227.36 688.516C1222.97 696.942 1217.47 707.2 1210.88 719.289C1204.28 731.378 1196.77 743.834 1188.35 756.656C1179.92 769.477 1170.58 782.299 1160.32 795.121C1150.43 807.577 1139.81 818.933 1128.45 829.191C1117.1 839.082 1105.19 847.141 1092.73 853.369C1080.28 859.597 1067.64 862.711 1054.82 862.711C1038.33 862.711 1023.86 859.231 1011.41 852.27C998.951 845.31 988.327 835.968 979.535 824.245C971.109 812.522 964.698 798.785 960.302 783.032C956.272 766.913 954.257 749.695 954.257 731.378ZM1012.51 409.366C1012.51 404.237 1010.49 399.841 1006.46 396.178C1002.8 392.148 998.401 390.133 993.273 390.133C988.144 390.133 983.748 392.148 980.084 396.178C976.421 399.841 974.589 404.237 974.589 409.366C974.589 414.495 976.421 418.891 980.084 422.554C983.748 426.217 988.144 428.049 993.273 428.049C998.401 428.049 1002.8 426.217 1006.46 422.554C1010.49 418.891 1012.51 414.495 1012.51 409.366Z"/>
<path d="M1502.67 688.516C1498.64 696.942 1493.51 707.017 1487.28 718.739C1481.42 730.096 1474.64 742.002 1466.95 754.457C1459.26 766.913 1450.65 779.369 1441.12 791.824C1431.6 803.913 1421.16 814.903 1409.8 824.795C1398.81 834.319 1386.9 842.013 1374.08 847.874C1361.63 854.102 1348.26 857.216 1333.97 857.216C1311.99 857.216 1293.12 850.438 1277.37 836.884C1261.62 823.329 1248.24 805.562 1237.25 783.581C1226.26 761.601 1217.29 736.69 1210.33 708.848C1203.73 680.64 1198.61 652.066 1194.94 623.125C1191.28 593.818 1188.71 565.426 1187.25 537.951C1186.15 510.475 1185.6 486.114 1185.6 464.866C1185.6 434.094 1186.52 402.222 1188.35 369.252C1190.55 336.281 1193.84 304.043 1198.24 272.538C1202.64 241.033 1208.13 211.176 1214.72 182.968C1221.69 154.76 1229.74 130.032 1238.9 108.784C1248.43 87.5368 1259.23 70.6852 1271.32 58.2296C1283.41 45.7741 1297.15 39.5463 1312.54 39.5463C1324.63 39.5463 1335.43 42.477 1344.96 48.3385C1354.85 53.8336 1363.09 62.992 1369.69 75.8139C1376.28 88.6358 1381.41 105.304 1385.07 125.819C1388.74 146.334 1390.57 171.428 1390.57 201.102C1390.57 237.736 1386.72 275.652 1379.03 314.85C1371.33 353.682 1360.89 392.881 1347.71 432.445C1334.52 472.01 1318.95 511.575 1301 551.139C1283.05 590.337 1263.81 628.62 1243.3 665.987C1252.46 712.512 1264.73 749.146 1280.12 775.888C1295.5 802.265 1314 815.453 1335.62 815.453C1350.27 815.453 1364.37 809.775 1377.93 798.418C1391.48 786.695 1403.94 772.958 1415.3 757.205C1426.65 741.452 1436.54 725.517 1444.97 709.398C1453.76 692.912 1460.54 679.724 1465.3 669.833C1467.13 666.17 1469.7 663.422 1472.99 661.59C1476.29 659.392 1479.95 658.293 1483.98 658.293C1490.21 658.293 1495.16 660.491 1498.82 664.888C1502.85 669.284 1504.87 674.229 1504.87 679.724C1504.87 681.922 1504.13 684.853 1502.67 688.516ZM1227.36 467.614C1227.36 491.06 1227.91 513.589 1229.01 535.203C1230.11 556.817 1231.58 577.516 1233.41 597.298C1248.79 567.624 1263.45 536.119 1277.37 502.782C1291.29 469.079 1303.56 435.193 1314.19 401.123C1324.81 366.687 1333.24 332.618 1339.46 298.915C1346.06 264.845 1349.35 232.424 1349.35 201.651C1349.35 158.423 1345.87 127.468 1338.91 108.784C1331.95 90.1012 1322.61 80.7595 1310.89 80.7595C1303.2 80.7595 1295.69 86.0714 1288.36 96.6953C1281.4 107.319 1274.8 121.79 1268.58 140.106C1262.35 158.423 1256.67 180.037 1251.54 204.949C1246.41 229.86 1242.02 256.602 1238.35 285.177C1235.06 313.751 1232.31 343.608 1230.11 374.747C1228.28 405.886 1227.36 436.841 1227.36 467.614Z"/>
<path d="M1555.42 409.366C1555.42 423.287 1550.47 435.193 1540.58 445.084C1531.06 454.609 1519.34 459.371 1505.41 459.371C1491.49 459.371 1479.59 454.609 1469.7 445.084C1460.17 435.193 1455.41 423.287 1455.41 409.366C1455.41 402.405 1456.69 395.994 1459.26 390.133C1461.82 383.905 1465.3 378.593 1469.7 374.197C1474.46 369.435 1479.77 365.771 1485.63 363.207C1491.86 360.643 1498.45 359.361 1505.41 359.361C1512.38 359.361 1518.79 360.643 1524.65 363.207C1530.88 365.771 1536.19 369.435 1540.58 374.197C1545.35 378.593 1549.01 383.905 1551.57 390.133C1554.14 395.994 1555.42 402.405 1555.42 409.366ZM1466.4 731.378C1466.4 678.625 1469.7 626.056 1476.29 573.669C1477.02 568.54 1479.22 564.144 1482.89 560.481C1486.91 556.451 1492.04 554.436 1498.27 554.436C1503.77 554.436 1508.35 556.634 1512.01 561.03C1515.67 565.06 1517.5 569.822 1517.5 575.318C1517.5 577.516 1516.95 584.11 1515.86 595.1C1515.12 606.09 1514.02 619.278 1512.56 634.664C1511.46 649.684 1510.36 665.803 1509.26 683.021C1508.53 699.873 1508.16 715.442 1508.16 729.73C1508.16 749.146 1509.99 764.898 1513.66 776.987C1517.69 788.71 1522.63 797.869 1528.49 804.463C1534.72 811.057 1541.13 815.453 1547.73 817.651C1554.69 819.849 1561.28 820.948 1567.51 820.948C1577.77 820.948 1588.39 817.285 1599.38 809.958C1610.37 802.631 1621.54 792.374 1632.9 779.185C1644.62 765.997 1656.35 750.245 1668.07 731.928C1679.79 713.244 1691.33 692.546 1702.69 669.833C1704.52 666.17 1707.08 663.422 1710.38 661.59C1713.68 659.392 1717.34 658.293 1721.37 658.293C1727.23 658.293 1732 660.491 1735.66 664.888C1739.69 669.284 1741.7 674.046 1741.7 679.175C1741.7 682.838 1740.97 685.952 1739.51 688.516C1735.11 696.942 1729.61 707.2 1723.02 719.289C1716.43 731.378 1708.92 743.834 1700.49 756.656C1692.06 769.477 1682.72 782.299 1672.47 795.121C1662.57 807.577 1651.95 818.933 1640.59 829.191C1629.24 839.082 1617.33 847.141 1604.88 853.369C1592.42 859.597 1579.78 862.711 1566.96 862.711C1550.47 862.711 1536 859.231 1523.55 852.27C1511.09 845.31 1500.47 835.968 1491.68 824.245C1483.25 812.522 1476.84 798.785 1472.44 783.032C1468.41 766.913 1466.4 749.695 1466.4 731.378ZM1524.65 409.366C1524.65 404.237 1522.63 399.841 1518.6 396.178C1514.94 392.148 1510.54 390.133 1505.41 390.133C1500.29 390.133 1495.89 392.148 1492.23 396.178C1488.56 399.841 1486.73 404.237 1486.73 409.366C1486.73 414.495 1488.56 418.891 1492.23 422.554C1495.89 426.217 1500.29 428.049 1505.41 428.049C1510.54 428.049 1514.94 426.217 1518.6 422.554C1522.63 418.891 1524.65 414.495 1524.65 409.366Z"/>
</mask>
<path d="M910.297 312.652C910.297 318.147 908.282 323.093 904.252 327.489C900.589 331.885 895.826 334.083 889.965 334.083C884.47 334.083 879.707 332.251 875.678 328.588C871.648 324.925 869.267 319.979 868.534 313.751C868.168 312.286 867.252 305.326 865.786 292.87C864.688 280.414 861.024 265.211 854.796 247.261C848.935 228.944 839.776 209.528 827.321 189.013C814.865 168.131 797.647 148.899 775.667 131.314C754.053 113.73 726.578 99.0765 693.241 87.3536C659.904 75.6308 619.423 69.7693 571.799 69.7693C529.67 69.7693 487.175 76.1803 444.313 89.0021C401.818 101.458 360.971 119.225 321.773 142.305C282.574 165.018 245.94 192.31 211.871 224.181C177.801 255.687 148.128 290.489 122.85 328.588C97.9393 366.687 78.157 407.351 63.5034 450.579C49.2162 493.807 42.0725 538.317 42.0725 584.11C42.0725 625.506 47.7508 661.041 59.1073 690.714C70.4638 720.022 86.2164 744.017 106.365 762.7C126.514 781.383 150.143 795.121 177.252 803.913C204.727 812.339 234.218 816.552 265.723 816.552C320.307 816.552 371.228 807.21 418.486 788.527C466.11 769.477 510.071 744.017 550.368 712.145C591.032 679.907 628.032 642.541 661.369 600.045C694.706 557.184 724.563 512.124 750.939 464.866C753.87 420.173 758.999 386.103 766.325 362.658C774.018 338.846 785.375 326.94 800.395 326.94C808.821 326.94 815.781 330.42 821.276 337.38C827.138 344.341 830.068 353.316 830.068 364.306C830.068 376.395 826.955 391.782 820.727 410.465C814.499 429.148 804.974 450.762 792.152 475.307C791.053 492.525 790.504 511.025 790.504 530.807C790.504 559.748 791.603 591.436 793.801 625.872C796.365 660.308 800.212 696.942 805.341 735.774C820.727 728.081 832.633 722.586 841.059 719.289C849.851 715.625 856.262 713.244 860.291 712.145C864.321 710.68 866.885 710.13 867.985 710.497C869.084 710.497 869.999 710.497 870.732 710.497C876.227 710.497 880.99 712.512 885.019 716.541C889.415 720.205 891.613 725.15 891.613 731.378C891.613 735.774 890.331 739.804 887.767 743.467C885.203 746.764 881.722 749.146 877.326 750.611C876.594 750.977 870.183 753.542 858.093 758.304C846.371 762.7 830.618 769.844 810.836 779.735C812.667 799.517 814.133 819.483 815.232 839.631C816.331 859.78 816.88 880.112 816.88 900.627C816.88 948.984 813.4 995.142 806.44 1039.1C799.479 1083.06 787.939 1121.71 771.82 1155.05C756.068 1188.39 735.003 1214.76 708.627 1234.18C682.25 1253.96 649.829 1263.85 611.364 1263.85C592.314 1263.85 574.73 1260.56 558.611 1253.96C542.492 1247.37 528.571 1238.21 516.848 1226.49C505.125 1214.76 495.967 1200.66 489.373 1184.17C482.779 1168.05 479.482 1150.29 479.482 1130.87C479.482 1103.4 484.061 1076.29 493.219 1049.54C502.744 1022.8 515.2 996.974 530.586 972.063C546.339 947.152 564.289 923.523 584.438 901.176C604.587 879.196 625.285 858.864 646.532 840.181C667.78 821.498 688.661 805.012 709.176 790.725C730.058 776.438 749.107 764.898 766.325 756.106C761.563 719.472 757.716 683.571 754.786 648.402C751.855 612.867 750.023 578.431 749.291 545.095C717.419 596.016 682.25 640.892 643.785 679.724C605.686 718.556 565.755 751.16 523.992 777.537C482.229 803.913 439.184 823.879 394.857 837.433C350.897 850.622 307.119 857.216 263.525 857.216C223.96 857.216 188.059 851.354 155.821 839.631C123.583 827.542 95.9244 809.958 72.8451 786.878C49.7657 763.799 31.9982 735.225 19.5427 701.155C7.08714 667.086 0.859375 627.887 0.859375 583.56C0.859375 536.669 8.18616 490.51 22.8397 445.084C37.4933 399.292 57.8251 355.88 83.8352 314.85C109.845 273.454 140.618 235.355 176.153 200.552C212.054 165.75 251.069 135.71 293.198 110.433C335.694 84.7892 380.387 64.8237 427.278 50.5365C474.536 35.8829 522.71 28.5562 571.799 28.5562C619.057 28.5562 660.087 34.0512 694.889 45.0414C729.691 55.6653 759.182 69.403 783.36 86.2546C807.905 102.74 827.687 120.874 842.707 140.656C858.093 160.072 870.183 178.572 878.975 196.156C886.302 211.176 891.98 225.647 896.01 239.568C900.406 253.488 903.519 265.761 905.351 276.385C907.549 287.009 908.831 295.617 909.198 302.212C909.93 308.806 910.297 312.286 910.297 312.652ZM771.271 801.715C752.954 811.973 733.904 824.245 714.122 838.532C694.706 852.453 675.656 867.839 656.973 884.691C638.656 901.543 621.255 919.677 604.77 939.092C588.284 958.508 573.814 978.657 561.359 999.538C548.903 1020.42 539.012 1041.85 531.685 1063.83C524.725 1086.18 521.244 1108.52 521.244 1130.87C521.244 1144.79 523.442 1157.25 527.839 1168.24C532.235 1179.59 538.462 1189.12 546.522 1196.81C554.581 1204.87 564.106 1211.1 575.096 1215.5C586.086 1219.89 598.176 1222.09 611.364 1222.09C663.018 1222.09 703.315 1194.61 732.256 1139.66C761.197 1085.08 775.667 1005.22 775.667 900.077C775.667 884.325 775.301 868.206 774.568 851.721C773.835 835.602 772.736 818.933 771.271 801.715Z" fill="#6D2128"/>
<path d="M1043.28 409.366C1043.28 423.287 1038.33 435.193 1028.44 445.084C1018.92 454.609 1007.19 459.371 993.273 459.371C979.352 459.371 967.446 454.609 957.555 445.084C948.03 435.193 943.267 423.287 943.267 409.366C943.267 402.405 944.549 395.994 947.114 390.133C949.678 383.905 953.158 378.593 957.555 374.197C962.317 369.435 967.629 365.771 973.49 363.207C979.718 360.643 986.312 359.361 993.273 359.361C1000.23 359.361 1006.64 360.643 1012.51 363.207C1018.73 365.771 1024.05 369.435 1028.44 374.197C1033.2 378.593 1036.87 383.905 1039.43 390.133C1042 395.994 1043.28 402.405 1043.28 409.366ZM954.257 731.378C954.257 678.625 957.555 626.056 964.149 573.669C964.881 568.54 967.079 564.144 970.743 560.481C974.772 556.451 979.901 554.436 986.129 554.436C991.624 554.436 996.203 556.634 999.867 561.03C1003.53 565.06 1005.36 569.822 1005.36 575.318C1005.36 577.516 1004.81 584.11 1003.71 595.1C1002.98 606.09 1001.88 619.278 1000.42 634.664C999.317 649.684 998.218 665.803 997.119 683.021C996.386 699.873 996.02 715.442 996.02 729.73C996.02 749.146 997.852 764.898 1001.52 776.987C1005.54 788.71 1010.49 797.869 1016.35 804.463C1022.58 811.057 1028.99 815.453 1035.58 817.651C1042.55 819.849 1049.14 820.948 1055.37 820.948C1065.62 820.948 1076.25 817.285 1087.24 809.958C1098.23 802.631 1109.4 792.374 1120.76 779.185C1132.48 765.997 1144.2 750.245 1155.93 731.928C1167.65 713.244 1179.19 692.546 1190.55 669.833C1192.38 666.17 1194.94 663.422 1198.24 661.59C1201.54 659.392 1205.2 658.293 1209.23 658.293C1215.09 658.293 1219.85 660.491 1223.52 664.888C1227.55 669.284 1229.56 674.046 1229.56 679.175C1229.56 682.838 1228.83 685.952 1227.36 688.516C1222.97 696.942 1217.47 707.2 1210.88 719.289C1204.28 731.378 1196.77 743.834 1188.35 756.656C1179.92 769.477 1170.58 782.299 1160.32 795.121C1150.43 807.577 1139.81 818.933 1128.45 829.191C1117.1 839.082 1105.19 847.141 1092.73 853.369C1080.28 859.597 1067.64 862.711 1054.82 862.711C1038.33 862.711 1023.86 859.231 1011.41 852.27C998.951 845.31 988.327 835.968 979.535 824.245C971.109 812.522 964.698 798.785 960.302 783.032C956.272 766.913 954.257 749.695 954.257 731.378ZM1012.51 409.366C1012.51 404.237 1010.49 399.841 1006.46 396.178C1002.8 392.148 998.401 390.133 993.273 390.133C988.144 390.133 983.748 392.148 980.084 396.178C976.421 399.841 974.589 404.237 974.589 409.366C974.589 414.495 976.421 418.891 980.084 422.554C983.748 426.217 988.144 428.049 993.273 428.049C998.401 428.049 1002.8 426.217 1006.46 422.554C1010.49 418.891 1012.51 414.495 1012.51 409.366Z" fill="#6D2128"/>
<path d="M1502.67 688.516C1498.64 696.942 1493.51 707.017 1487.28 718.739C1481.42 730.096 1474.64 742.002 1466.95 754.457C1459.26 766.913 1450.65 779.369 1441.12 791.824C1431.6 803.913 1421.16 814.903 1409.8 824.795C1398.81 834.319 1386.9 842.013 1374.08 847.874C1361.63 854.102 1348.26 857.216 1333.97 857.216C1311.99 857.216 1293.12 850.438 1277.37 836.884C1261.62 823.329 1248.24 805.562 1237.25 783.581C1226.26 761.601 1217.29 736.69 1210.33 708.848C1203.73 680.64 1198.61 652.066 1194.94 623.125C1191.28 593.818 1188.71 565.426 1187.25 537.951C1186.15 510.475 1185.6 486.114 1185.6 464.866C1185.6 434.094 1186.52 402.222 1188.35 369.252C1190.55 336.281 1193.84 304.043 1198.24 272.538C1202.64 241.033 1208.13 211.176 1214.72 182.968C1221.69 154.76 1229.74 130.032 1238.9 108.784C1248.43 87.5368 1259.23 70.6852 1271.32 58.2296C1283.41 45.7741 1297.15 39.5463 1312.54 39.5463C1324.63 39.5463 1335.43 42.477 1344.96 48.3385C1354.85 53.8336 1363.09 62.992 1369.69 75.8139C1376.28 88.6358 1381.41 105.304 1385.07 125.819C1388.74 146.334 1390.57 171.428 1390.57 201.102C1390.57 237.736 1386.72 275.652 1379.03 314.85C1371.33 353.682 1360.89 392.881 1347.71 432.445C1334.52 472.01 1318.95 511.575 1301 551.139C1283.05 590.337 1263.81 628.62 1243.3 665.987C1252.46 712.512 1264.73 749.146 1280.12 775.888C1295.5 802.265 1314 815.453 1335.62 815.453C1350.27 815.453 1364.37 809.775 1377.93 798.418C1391.48 786.695 1403.94 772.958 1415.3 757.205C1426.65 741.452 1436.54 725.517 1444.97 709.398C1453.76 692.912 1460.54 679.724 1465.3 669.833C1467.13 666.17 1469.7 663.422 1472.99 661.59C1476.29 659.392 1479.95 658.293 1483.98 658.293C1490.21 658.293 1495.16 660.491 1498.82 664.888C1502.85 669.284 1504.87 674.229 1504.87 679.724C1504.87 681.922 1504.13 684.853 1502.67 688.516ZM1227.36 467.614C1227.36 491.06 1227.91 513.589 1229.01 535.203C1230.11 556.817 1231.58 577.516 1233.41 597.298C1248.79 567.624 1263.45 536.119 1277.37 502.782C1291.29 469.079 1303.56 435.193 1314.19 401.123C1324.81 366.687 1333.24 332.618 1339.46 298.915C1346.06 264.845 1349.35 232.424 1349.35 201.651C1349.35 158.423 1345.87 127.468 1338.91 108.784C1331.95 90.1012 1322.61 80.7595 1310.89 80.7595C1303.2 80.7595 1295.69 86.0714 1288.36 96.6953C1281.4 107.319 1274.8 121.79 1268.58 140.106C1262.35 158.423 1256.67 180.037 1251.54 204.949C1246.41 229.86 1242.02 256.602 1238.35 285.177C1235.06 313.751 1232.31 343.608 1230.11 374.747C1228.28 405.886 1227.36 436.841 1227.36 467.614Z" fill="#6D2128"/>
<path d="M1555.42 409.366C1555.42 423.287 1550.47 435.193 1540.58 445.084C1531.06 454.609 1519.34 459.371 1505.41 459.371C1491.49 459.371 1479.59 454.609 1469.7 445.084C1460.17 435.193 1455.41 423.287 1455.41 409.366C1455.41 402.405 1456.69 395.994 1459.26 390.133C1461.82 383.905 1465.3 378.593 1469.7 374.197C1474.46 369.435 1479.77 365.771 1485.63 363.207C1491.86 360.643 1498.45 359.361 1505.41 359.361C1512.38 359.361 1518.79 360.643 1524.65 363.207C1530.88 365.771 1536.19 369.435 1540.58 374.197C1545.35 378.593 1549.01 383.905 1551.57 390.133C1554.14 395.994 1555.42 402.405 1555.42 409.366ZM1466.4 731.378C1466.4 678.625 1469.7 626.056 1476.29 573.669C1477.02 568.54 1479.22 564.144 1482.89 560.481C1486.91 556.451 1492.04 554.436 1498.27 554.436C1503.77 554.436 1508.35 556.634 1512.01 561.03C1515.67 565.06 1517.5 569.822 1517.5 575.318C1517.5 577.516 1516.95 584.11 1515.86 595.1C1515.12 606.09 1514.02 619.278 1512.56 634.664C1511.46 649.684 1510.36 665.803 1509.26 683.021C1508.53 699.873 1508.16 715.442 1508.16 729.73C1508.16 749.146 1509.99 764.898 1513.66 776.987C1517.69 788.71 1522.63 797.869 1528.49 804.463C1534.72 811.057 1541.13 815.453 1547.73 817.651C1554.69 819.849 1561.28 820.948 1567.51 820.948C1577.77 820.948 1588.39 817.285 1599.38 809.958C1610.37 802.631 1621.54 792.374 1632.9 779.185C1644.62 765.997 1656.35 750.245 1668.07 731.928C1679.79 713.244 1691.33 692.546 1702.69 669.833C1704.52 666.17 1707.08 663.422 1710.38 661.59C1713.68 659.392 1717.34 658.293 1721.37 658.293C1727.23 658.293 1732 660.491 1735.66 664.888C1739.69 669.284 1741.7 674.046 1741.7 679.175C1741.7 682.838 1740.97 685.952 1739.51 688.516C1735.11 696.942 1729.61 707.2 1723.02 719.289C1716.43 731.378 1708.92 743.834 1700.49 756.656C1692.06 769.477 1682.72 782.299 1672.47 795.121C1662.57 807.577 1651.95 818.933 1640.59 829.191C1629.24 839.082 1617.33 847.141 1604.88 853.369C1592.42 859.597 1579.78 862.711 1566.96 862.711C1550.47 862.711 1536 859.231 1523.55 852.27C1511.09 845.31 1500.47 835.968 1491.68 824.245C1483.25 812.522 1476.84 798.785 1472.44 783.032C1468.41 766.913 1466.4 749.695 1466.4 731.378ZM1524.65 409.366C1524.65 404.237 1522.63 399.841 1518.6 396.178C1514.94 392.148 1510.54 390.133 1505.41 390.133C1500.29 390.133 1495.89 392.148 1492.23 396.178C1488.56 399.841 1486.73 404.237 1486.73 409.366C1486.73 414.495 1488.56 418.891 1492.23 422.554C1495.89 426.217 1500.29 428.049 1505.41 428.049C1510.54 428.049 1514.94 426.217 1518.6 422.554C1522.63 418.891 1524.65 414.495 1524.65 409.366Z" fill="#6D2128"/>
<path d="M910.297 312.652C910.297 318.147 908.282 323.093 904.252 327.489C900.589 331.885 895.826 334.083 889.965 334.083C884.47 334.083 879.707 332.251 875.678 328.588C871.648 324.925 869.267 319.979 868.534 313.751C868.168 312.286 867.252 305.326 865.786 292.87C864.688 280.414 861.024 265.211 854.796 247.261C848.935 228.944 839.776 209.528 827.321 189.013C814.865 168.131 797.647 148.899 775.667 131.314C754.053 113.73 726.578 99.0765 693.241 87.3536C659.904 75.6308 619.423 69.7693 571.799 69.7693C529.67 69.7693 487.175 76.1803 444.313 89.0021C401.818 101.458 360.971 119.225 321.773 142.305C282.574 165.018 245.94 192.31 211.871 224.181C177.801 255.687 148.128 290.489 122.85 328.588C97.9393 366.687 78.157 407.351 63.5034 450.579C49.2162 493.807 42.0725 538.317 42.0725 584.11C42.0725 625.506 47.7508 661.041 59.1073 690.714C70.4638 720.022 86.2164 744.017 106.365 762.7C126.514 781.383 150.143 795.121 177.252 803.913C204.727 812.339 234.218 816.552 265.723 816.552C320.307 816.552 371.228 807.21 418.486 788.527C466.11 769.477 510.071 744.017 550.368 712.145C591.032 679.907 628.032 642.541 661.369 600.045C694.706 557.184 724.563 512.124 750.939 464.866C753.87 420.173 758.999 386.103 766.325 362.658C774.018 338.846 785.375 326.94 800.395 326.94C808.821 326.94 815.781 330.42 821.276 337.38C827.138 344.341 830.068 353.316 830.068 364.306C830.068 376.395 826.955 391.782 820.727 410.465C814.499 429.148 804.974 450.762 792.152 475.307C791.053 492.525 790.504 511.025 790.504 530.807C790.504 559.748 791.603 591.436 793.801 625.872C796.365 660.308 800.212 696.942 805.341 735.774C820.727 728.081 832.633 722.586 841.059 719.289C849.851 715.625 856.262 713.244 860.291 712.145C864.321 710.68 866.885 710.13 867.985 710.497C869.084 710.497 869.999 710.497 870.732 710.497C876.227 710.497 880.99 712.512 885.019 716.541C889.415 720.205 891.613 725.15 891.613 731.378C891.613 735.774 890.331 739.804 887.767 743.467C885.203 746.764 881.722 749.146 877.326 750.611C876.594 750.977 870.183 753.542 858.093 758.304C846.371 762.7 830.618 769.844 810.836 779.735C812.667 799.517 814.133 819.483 815.232 839.631C816.331 859.78 816.88 880.112 816.88 900.627C816.88 948.984 813.4 995.142 806.44 1039.1C799.479 1083.06 787.939 1121.71 771.82 1155.05C756.068 1188.39 735.003 1214.76 708.627 1234.18C682.25 1253.96 649.829 1263.85 611.364 1263.85C592.314 1263.85 574.73 1260.56 558.611 1253.96C542.492 1247.37 528.571 1238.21 516.848 1226.49C505.125 1214.76 495.967 1200.66 489.373 1184.17C482.779 1168.05 479.482 1150.29 479.482 1130.87C479.482 1103.4 484.061 1076.29 493.219 1049.54C502.744 1022.8 515.2 996.974 530.586 972.063C546.339 947.152 564.289 923.523 584.438 901.176C604.587 879.196 625.285 858.864 646.532 840.181C667.78 821.498 688.661 805.012 709.176 790.725C730.058 776.438 749.107 764.898 766.325 756.106C761.563 719.472 757.716 683.571 754.786 648.402C751.855 612.867 750.023 578.431 749.291 545.095C717.419 596.016 682.25 640.892 643.785 679.724C605.686 718.556 565.755 751.16 523.992 777.537C482.229 803.913 439.184 823.879 394.857 837.433C350.897 850.622 307.119 857.216 263.525 857.216C223.96 857.216 188.059 851.354 155.821 839.631C123.583 827.542 95.9244 809.958 72.8451 786.878C49.7657 763.799 31.9982 735.225 19.5427 701.155C7.08714 667.086 0.859375 627.887 0.859375 583.56C0.859375 536.669 8.18616 490.51 22.8397 445.084C37.4933 399.292 57.8251 355.88 83.8352 314.85C109.845 273.454 140.618 235.355 176.153 200.552C212.054 165.75 251.069 135.71 293.198 110.433C335.694 84.7892 380.387 64.8237 427.278 50.5365C474.536 35.8829 522.71 28.5562 571.799 28.5562C619.057 28.5562 660.087 34.0512 694.889 45.0414C729.691 55.6653 759.182 69.403 783.36 86.2546C807.905 102.74 827.687 120.874 842.707 140.656C858.093 160.072 870.183 178.572 878.975 196.156C886.302 211.176 891.98 225.647 896.01 239.568C900.406 253.488 903.519 265.761 905.351 276.385C907.549 287.009 908.831 295.617 909.198 302.212C909.93 308.806 910.297 312.286 910.297 312.652ZM771.271 801.715C752.954 811.973 733.904 824.245 714.122 838.532C694.706 852.453 675.656 867.839 656.973 884.691C638.656 901.543 621.255 919.677 604.77 939.092C588.284 958.508 573.814 978.657 561.359 999.538C548.903 1020.42 539.012 1041.85 531.685 1063.83C524.725 1086.18 521.244 1108.52 521.244 1130.87C521.244 1144.79 523.442 1157.25 527.839 1168.24C532.235 1179.59 538.462 1189.12 546.522 1196.81C554.581 1204.87 564.106 1211.1 575.096 1215.5C586.086 1219.89 598.176 1222.09 611.364 1222.09C663.018 1222.09 703.315 1194.61 732.256 1139.66C761.197 1085.08 775.667 1005.22 775.667 900.077C775.667 884.325 775.301 868.206 774.568 851.721C773.835 835.602 772.736 818.933 771.271 801.715Z" stroke="#6D2128" stroke-width="2" mask="url(#path-3-inside-1)"/>
<path d="M1043.28 409.366C1043.28 423.287 1038.33 435.193 1028.44 445.084C1018.92 454.609 1007.19 459.371 993.273 459.371C979.352 459.371 967.446 454.609 957.555 445.084C948.03 435.193 943.267 423.287 943.267 409.366C943.267 402.405 944.549 395.994 947.114 390.133C949.678 383.905 953.158 378.593 957.555 374.197C962.317 369.435 967.629 365.771 973.49 363.207C979.718 360.643 986.312 359.361 993.273 359.361C1000.23 359.361 1006.64 360.643 1012.51 363.207C1018.73 365.771 1024.05 369.435 1028.44 374.197C1033.2 378.593 1036.87 383.905 1039.43 390.133C1042 395.994 1043.28 402.405 1043.28 409.366ZM954.257 731.378C954.257 678.625 957.555 626.056 964.149 573.669C964.881 568.54 967.079 564.144 970.743 560.481C974.772 556.451 979.901 554.436 986.129 554.436C991.624 554.436 996.203 556.634 999.867 561.03C1003.53 565.06 1005.36 569.822 1005.36 575.318C1005.36 577.516 1004.81 584.11 1003.71 595.1C1002.98 606.09 1001.88 619.278 1000.42 634.664C999.317 649.684 998.218 665.803 997.119 683.021C996.386 699.873 996.02 715.442 996.02 729.73C996.02 749.146 997.852 764.898 1001.52 776.987C1005.54 788.71 1010.49 797.869 1016.35 804.463C1022.58 811.057 1028.99 815.453 1035.58 817.651C1042.55 819.849 1049.14 820.948 1055.37 820.948C1065.62 820.948 1076.25 817.285 1087.24 809.958C1098.23 802.631 1109.4 792.374 1120.76 779.185C1132.48 765.997 1144.2 750.245 1155.93 731.928C1167.65 713.244 1179.19 692.546 1190.55 669.833C1192.38 666.17 1194.94 663.422 1198.24 661.59C1201.54 659.392 1205.2 658.293 1209.23 658.293C1215.09 658.293 1219.85 660.491 1223.52 664.888C1227.55 669.284 1229.56 674.046 1229.56 679.175C1229.56 682.838 1228.83 685.952 1227.36 688.516C1222.97 696.942 1217.47 707.2 1210.88 719.289C1204.28 731.378 1196.77 743.834 1188.35 756.656C1179.92 769.477 1170.58 782.299 1160.32 795.121C1150.43 807.577 1139.81 818.933 1128.45 829.191C1117.1 839.082 1105.19 847.141 1092.73 853.369C1080.28 859.597 1067.64 862.711 1054.82 862.711C1038.33 862.711 1023.86 859.231 1011.41 852.27C998.951 845.31 988.327 835.968 979.535 824.245C971.109 812.522 964.698 798.785 960.302 783.032C956.272 766.913 954.257 749.695 954.257 731.378ZM1012.51 409.366C1012.51 404.237 1010.49 399.841 1006.46 396.178C1002.8 392.148 998.401 390.133 993.273 390.133C988.144 390.133 983.748 392.148 980.084 396.178C976.421 399.841 974.589 404.237 974.589 409.366C974.589 414.495 976.421 418.891 980.084 422.554C983.748 426.217 988.144 428.049 993.273 428.049C998.401 428.049 1002.8 426.217 1006.46 422.554C1010.49 418.891 1012.51 414.495 1012.51 409.366Z" stroke="#6D2128" stroke-width="2" mask="url(#path-3-inside-1)"/>
<path d="M1502.67 688.516C1498.64 696.942 1493.51 707.017 1487.28 718.739C1481.42 730.096 1474.64 742.002 1466.95 754.457C1459.26 766.913 1450.65 779.369 1441.12 791.824C1431.6 803.913 1421.16 814.903 1409.8 824.795C1398.81 834.319 1386.9 842.013 1374.08 847.874C1361.63 854.102 1348.26 857.216 1333.97 857.216C1311.99 857.216 1293.12 850.438 1277.37 836.884C1261.62 823.329 1248.24 805.562 1237.25 783.581C1226.26 761.601 1217.29 736.69 1210.33 708.848C1203.73 680.64 1198.61 652.066 1194.94 623.125C1191.28 593.818 1188.71 565.426 1187.25 537.951C1186.15 510.475 1185.6 486.114 1185.6 464.866C1185.6 434.094 1186.52 402.222 1188.35 369.252C1190.55 336.281 1193.84 304.043 1198.24 272.538C1202.64 241.033 1208.13 211.176 1214.72 182.968C1221.69 154.76 1229.74 130.032 1238.9 108.784C1248.43 87.5368 1259.23 70.6852 1271.32 58.2296C1283.41 45.7741 1297.15 39.5463 1312.54 39.5463C1324.63 39.5463 1335.43 42.477 1344.96 48.3385C1354.85 53.8336 1363.09 62.992 1369.69 75.8139C1376.28 88.6358 1381.41 105.304 1385.07 125.819C1388.74 146.334 1390.57 171.428 1390.57 201.102C1390.57 237.736 1386.72 275.652 1379.03 314.85C1371.33 353.682 1360.89 392.881 1347.71 432.445C1334.52 472.01 1318.95 511.575 1301 551.139C1283.05 590.337 1263.81 628.62 1243.3 665.987C1252.46 712.512 1264.73 749.146 1280.12 775.888C1295.5 802.265 1314 815.453 1335.62 815.453C1350.27 815.453 1364.37 809.775 1377.93 798.418C1391.48 786.695 1403.94 772.958 1415.3 757.205C1426.65 741.452 1436.54 725.517 1444.97 709.398C1453.76 692.912 1460.54 679.724 1465.3 669.833C1467.13 666.17 1469.7 663.422 1472.99 661.59C1476.29 659.392 1479.95 658.293 1483.98 658.293C1490.21 658.293 1495.16 660.491 1498.82 664.888C1502.85 669.284 1504.87 674.229 1504.87 679.724C1504.87 681.922 1504.13 684.853 1502.67 688.516ZM1227.36 467.614C1227.36 491.06 1227.91 513.589 1229.01 535.203C1230.11 556.817 1231.58 577.516 1233.41 597.298C1248.79 567.624 1263.45 536.119 1277.37 502.782C1291.29 469.079 1303.56 435.193 1314.19 401.123C1324.81 366.687 1333.24 332.618 1339.46 298.915C1346.06 264.845 1349.35 232.424 1349.35 201.651C1349.35 158.423 1345.87 127.468 1338.91 108.784C1331.95 90.1012 1322.61 80.7595 1310.89 80.7595C1303.2 80.7595 1295.69 86.0714 1288.36 96.6953C1281.4 107.319 1274.8 121.79 1268.58 140.106C1262.35 158.423 1256.67 180.037 1251.54 204.949C1246.41 229.86 1242.02 256.602 1238.35 285.177C1235.06 313.751 1232.31 343.608 1230.11 374.747C1228.28 405.886 1227.36 436.841 1227.36 467.614Z" stroke="#6D2128" stroke-width="2" mask="url(#path-3-inside-1)"/>
<path d="M1555.42 409.366C1555.42 423.287 1550.47 435.193 1540.58 445.084C1531.06 454.609 1519.34 459.371 1505.41 459.371C1491.49 459.371 1479.59 454.609 1469.7 445.084C1460.17 435.193 1455.41 423.287 1455.41 409.366C1455.41 402.405 1456.69 395.994 1459.26 390.133C1461.82 383.905 1465.3 378.593 1469.7 374.197C1474.46 369.435 1479.77 365.771 1485.63 363.207C1491.86 360.643 1498.45 359.361 1505.41 359.361C1512.38 359.361 1518.79 360.643 1524.65 363.207C1530.88 365.771 1536.19 369.435 1540.58 374.197C1545.35 378.593 1549.01 383.905 1551.57 390.133C1554.14 395.994 1555.42 402.405 1555.42 409.366ZM1466.4 731.378C1466.4 678.625 1469.7 626.056 1476.29 573.669C1477.02 568.54 1479.22 564.144 1482.89 560.481C1486.91 556.451 1492.04 554.436 1498.27 554.436C1503.77 554.436 1508.35 556.634 1512.01 561.03C1515.67 565.06 1517.5 569.822 1517.5 575.318C1517.5 577.516 1516.95 584.11 1515.86 595.1C1515.12 606.09 1514.02 619.278 1512.56 634.664C1511.46 649.684 1510.36 665.803 1509.26 683.021C1508.53 699.873 1508.16 715.442 1508.16 729.73C1508.16 749.146 1509.99 764.898 1513.66 776.987C1517.69 788.71 1522.63 797.869 1528.49 804.463C1534.72 811.057 1541.13 815.453 1547.73 817.651C1554.69 819.849 1561.28 820.948 1567.51 820.948C1577.77 820.948 1588.39 817.285 1599.38 809.958C1610.37 802.631 1621.54 792.374 1632.9 779.185C1644.62 765.997 1656.35 750.245 1668.07 731.928C1679.79 713.244 1691.33 692.546 1702.69 669.833C1704.52 666.17 1707.08 663.422 1710.38 661.59C1713.68 659.392 1717.34 658.293 1721.37 658.293C1727.23 658.293 1732 660.491 1735.66 664.888C1739.69 669.284 1741.7 674.046 1741.7 679.175C1741.7 682.838 1740.97 685.952 1739.51 688.516C1735.11 696.942 1729.61 707.2 1723.02 719.289C1716.43 731.378 1708.92 743.834 1700.49 756.656C1692.06 769.477 1682.72 782.299 1672.47 795.121C1662.57 807.577 1651.95 818.933 1640.59 829.191C1629.24 839.082 1617.33 847.141 1604.88 853.369C1592.42 859.597 1579.78 862.711 1566.96 862.711C1550.47 862.711 1536 859.231 1523.55 852.27C1511.09 845.31 1500.47 835.968 1491.68 824.245C1483.25 812.522 1476.84 798.785 1472.44 783.032C1468.41 766.913 1466.4 749.695 1466.4 731.378ZM1524.65 409.366C1524.65 404.237 1522.63 399.841 1518.6 396.178C1514.94 392.148 1510.54 390.133 1505.41 390.133C1500.29 390.133 1495.89 392.148 1492.23 396.178C1488.56 399.841 1486.73 404.237 1486.73 409.366C1486.73 414.495 1488.56 418.891 1492.23 422.554C1495.89 426.217 1500.29 428.049 1505.41 428.049C1510.54 428.049 1514.94 426.217 1518.6 422.554C1522.63 418.891 1524.65 414.495 1524.65 409.366Z" stroke="#6D2128" stroke-width="2" mask="url(#path-3-inside-1)"/>
<mask id="path-4-inside-2" fill="white">
<path d="M814.426 1764.89C883.298 1675.13 931.105 1600.58 957.848 1541.24C959.679 1537.21 962.06 1534.28 964.991 1532.44C968.288 1530.25 971.952 1529.15 975.981 1529.15C982.209 1529.15 987.338 1531.35 991.368 1535.74C995.397 1539.77 997.412 1544.53 997.412 1550.03C997.412 1552.59 996.863 1555.16 995.764 1557.72C979.645 1594.36 956.749 1635.2 927.075 1680.26C897.402 1725.32 859.852 1776.24 814.426 1833.03C814.426 1856.11 814.609 1879.19 814.975 1902.26C815.342 1925.34 815.525 1950.62 815.525 1978.1C815.525 2005.57 814.792 2032.68 813.327 2059.42C812.228 2086.53 810.03 2112.18 806.733 2136.36C803.436 2160.9 798.856 2183.43 792.995 2203.94C787.5 2224.83 780.173 2242.78 771.015 2257.8C762.222 2273.18 751.415 2285.09 738.593 2293.51C726.138 2302.31 711.301 2306.7 694.083 2306.7C669.539 2306.7 650.672 2297.36 637.484 2278.68C624.296 2259.99 617.702 2233.44 617.702 2199C617.702 2180.68 619.35 2160.72 622.647 2139.1C626.31 2117.86 631.439 2095.87 638.033 2073.16C644.627 2050.45 652.504 2027.37 661.662 2003.92C671.187 1980.84 681.628 1958.31 692.984 1936.33C704.341 1914.35 716.613 1893.29 729.801 1873.14C743.356 1852.99 757.643 1834.67 772.663 1818.19C773.029 1792.55 773.213 1767.09 773.213 1741.81C773.579 1716.53 774.128 1693.27 774.861 1672.02C763.871 1685.94 750.683 1696.93 735.296 1704.99C720.277 1713.05 705.257 1717.08 690.237 1717.08C677.415 1717.08 665.692 1714.7 655.068 1709.94C644.811 1704.81 636.018 1697.85 628.692 1689.05C621.365 1679.9 615.687 1669.27 611.657 1657.18C607.627 1645.09 605.612 1631.91 605.612 1617.62C605.612 1589.04 610.375 1563.95 619.9 1542.34C629.791 1520.36 642.246 1502.04 657.266 1487.39C672.286 1472.73 688.771 1461.74 706.722 1454.41C725.039 1447.09 742.623 1443.42 759.475 1443.42C770.831 1443.42 781.272 1444.89 790.797 1447.82C800.322 1450.75 808.381 1454.05 814.975 1457.71C821.936 1461.38 827.248 1464.86 830.911 1468.15C834.574 1471.45 836.589 1473.28 836.956 1473.65C840.985 1478.04 843 1482.99 843 1488.48C843 1493.98 840.985 1498.92 836.956 1503.32C832.926 1507.35 828.163 1509.37 822.668 1509.37C817.54 1509.37 812.594 1507.35 807.832 1503.32C806.366 1502.22 804.351 1500.76 801.787 1498.92C799.589 1496.73 796.475 1494.53 792.445 1492.33C788.782 1490.13 784.203 1488.3 778.708 1486.84C773.579 1485.37 767.351 1484.64 760.024 1484.64C749.034 1484.64 736.945 1487.2 723.757 1492.33C710.569 1497.09 698.296 1504.79 686.94 1515.41C675.583 1526.03 666.058 1539.77 658.365 1556.62C650.672 1573.11 646.825 1593.07 646.825 1616.52C646.825 1634.1 650.672 1648.39 658.365 1659.38C666.058 1670.01 677.964 1675.32 694.083 1675.32C701.776 1675.32 709.836 1673.12 718.262 1668.72C727.054 1664.33 735.48 1657.55 743.539 1648.39C751.599 1639.23 758.559 1627.69 764.42 1613.77C770.648 1599.85 775.044 1583.37 777.609 1564.32C778.341 1559.19 780.723 1554.97 784.752 1551.68C788.782 1548.01 793.544 1546.18 799.039 1546.18C805.267 1546.18 810.03 1548.38 813.327 1552.78C816.99 1557.17 818.822 1562.12 818.822 1567.61C818.822 1567.98 818.639 1573.66 818.272 1584.65C817.906 1595.27 817.54 1609.56 817.173 1627.51C816.807 1645.46 816.257 1666.34 815.525 1690.15C815.158 1713.6 814.792 1738.51 814.426 1764.89ZM772.663 1885.23C755.445 1909.04 739.876 1934.87 725.955 1962.71C712.034 1990.92 700.128 2019.31 690.237 2047.88C680.346 2076.46 672.652 2104.12 667.157 2130.86C662.029 2157.97 659.464 2182.15 659.464 2203.4C659.464 2216.95 660.563 2227.76 662.761 2235.82C665.326 2243.88 668.256 2250.1 671.553 2254.5C675.217 2258.9 679.063 2261.83 683.093 2263.29C687.489 2264.76 691.519 2265.49 695.182 2265.49C706.539 2265.49 716.43 2260.91 724.856 2251.75C733.282 2242.59 740.425 2230.32 746.287 2214.94C752.148 2199.92 756.91 2182.51 760.574 2162.73C764.237 2142.95 766.985 2122.43 768.816 2101.19C770.648 2080.31 771.93 2059.42 772.663 2038.54C773.396 2017.66 773.762 1998.43 773.762 1980.84C773.762 1965.09 773.762 1949.34 773.762 1933.59C773.762 1917.83 773.396 1901.71 772.663 1885.23Z"/>
<path d="M1047.97 1279.67C1047.97 1293.59 1043.02 1305.5 1033.13 1315.39C1023.61 1324.91 1011.88 1329.68 997.962 1329.68C984.041 1329.68 972.135 1324.91 962.244 1315.39C952.719 1305.5 947.956 1293.59 947.956 1279.67C947.956 1272.71 949.239 1266.3 951.803 1260.44C954.367 1254.21 957.848 1248.9 962.244 1244.5C967.006 1239.74 972.318 1236.08 978.179 1233.51C984.407 1230.95 991.001 1229.67 997.962 1229.67C1004.92 1229.67 1011.33 1230.95 1017.19 1233.51C1023.42 1236.08 1028.73 1239.74 1033.13 1244.5C1037.89 1248.9 1041.56 1254.21 1044.12 1260.44C1046.68 1266.3 1047.97 1272.71 1047.97 1279.67ZM958.947 1601.68C958.947 1548.93 962.244 1496.36 968.838 1443.97C969.57 1438.85 971.768 1434.45 975.432 1430.79C979.462 1426.76 984.59 1424.74 990.818 1424.74C996.313 1424.74 1000.89 1426.94 1004.56 1431.34C1008.22 1435.36 1010.05 1440.13 1010.05 1445.62C1010.05 1447.82 1009.5 1454.41 1008.4 1465.4C1007.67 1476.4 1006.57 1489.58 1005.11 1504.97C1004.01 1519.99 1002.91 1536.11 1001.81 1553.33C1001.08 1570.18 1000.71 1585.75 1000.71 1600.03C1000.71 1619.45 1002.54 1635.2 1006.2 1647.29C1010.23 1659.02 1015.18 1668.17 1021.04 1674.77C1027.27 1681.36 1033.68 1685.76 1040.27 1687.96C1047.23 1690.15 1053.83 1691.25 1060.06 1691.25C1070.31 1691.25 1080.94 1687.59 1091.93 1680.26C1102.92 1672.94 1114.09 1662.68 1125.45 1649.49C1137.17 1636.3 1148.89 1620.55 1160.62 1602.23C1172.34 1583.55 1183.88 1562.85 1195.24 1540.14C1197.07 1536.47 1199.63 1533.73 1202.93 1531.9C1206.23 1529.7 1209.89 1528.6 1213.92 1528.6C1219.78 1528.6 1224.54 1530.8 1228.21 1535.19C1232.24 1539.59 1234.25 1544.35 1234.25 1549.48C1234.25 1553.14 1233.52 1556.26 1232.05 1558.82C1227.66 1567.25 1222.16 1577.5 1215.57 1589.59C1208.97 1601.68 1201.46 1614.14 1193.04 1626.96C1184.61 1639.78 1175.27 1652.6 1165.01 1665.43C1155.12 1677.88 1144.5 1689.24 1133.14 1699.5C1121.78 1709.39 1109.88 1717.45 1097.42 1723.67C1084.97 1729.9 1072.33 1733.02 1059.51 1733.02C1043.02 1733.02 1028.55 1729.54 1016.1 1722.58C1003.64 1715.61 993.016 1706.27 984.224 1694.55C975.798 1682.83 969.387 1669.09 964.991 1653.34C960.961 1637.22 958.947 1620 958.947 1601.68ZM1017.19 1279.67C1017.19 1274.54 1015.18 1270.15 1011.15 1266.48C1007.49 1262.45 1003.09 1260.44 997.962 1260.44C992.833 1260.44 988.437 1262.45 984.773 1266.48C981.11 1270.15 979.278 1274.54 979.278 1279.67C979.278 1284.8 981.11 1289.2 984.773 1292.86C988.437 1296.52 992.833 1298.35 997.962 1298.35C1003.09 1298.35 1007.49 1296.52 1011.15 1292.86C1015.18 1289.2 1017.19 1284.8 1017.19 1279.67Z"/>
<path d="M1507.36 1558.82C1503.33 1567.25 1498.2 1577.32 1491.97 1589.04C1486.11 1600.4 1479.33 1612.31 1471.64 1624.76C1463.95 1637.22 1455.34 1649.67 1445.81 1662.13C1436.29 1674.22 1425.85 1685.21 1414.49 1695.1C1403.5 1704.62 1391.59 1712.32 1378.77 1718.18C1366.32 1724.41 1352.94 1727.52 1338.66 1727.52C1316.68 1727.52 1297.81 1720.74 1282.06 1707.19C1266.31 1693.63 1252.93 1675.87 1241.94 1653.89C1230.95 1631.91 1221.98 1606.99 1215.02 1579.15C1208.42 1550.95 1203.29 1522.37 1199.63 1493.43C1195.97 1464.12 1193.4 1435.73 1191.94 1408.26C1190.84 1380.78 1190.29 1356.42 1190.29 1335.17C1190.29 1304.4 1191.21 1272.53 1193.04 1239.56C1195.24 1206.59 1198.53 1174.35 1202.93 1142.84C1207.32 1111.34 1212.82 1081.48 1219.41 1053.27C1226.37 1025.06 1234.43 1000.34 1243.59 979.089C1253.12 957.842 1263.92 940.99 1276.01 928.535C1288.1 916.079 1301.84 909.851 1317.23 909.851C1329.32 909.851 1340.12 912.782 1349.65 918.643C1359.54 924.138 1367.78 933.297 1374.38 946.119C1380.97 958.941 1386.1 975.609 1389.76 996.124C1393.42 1016.64 1395.26 1041.73 1395.26 1071.41C1395.26 1108.04 1391.41 1145.96 1383.72 1185.16C1376.02 1223.99 1365.58 1263.19 1352.4 1302.75C1339.21 1342.31 1323.64 1381.88 1305.69 1421.44C1287.74 1460.64 1268.5 1498.92 1247.99 1536.29C1257.15 1582.82 1269.42 1619.45 1284.81 1646.19C1300.19 1672.57 1318.69 1685.76 1340.31 1685.76C1354.96 1685.76 1369.06 1680.08 1382.62 1668.72C1396.17 1657 1408.63 1643.26 1419.98 1627.51C1431.34 1611.76 1441.23 1595.82 1449.66 1579.7C1458.45 1563.22 1465.23 1550.03 1469.99 1540.14C1471.82 1536.47 1474.39 1533.73 1477.68 1531.9C1480.98 1529.7 1484.64 1528.6 1488.67 1528.6C1494.9 1528.6 1499.85 1530.8 1503.51 1535.19C1507.54 1539.59 1509.55 1544.53 1509.55 1550.03C1509.55 1552.23 1508.82 1555.16 1507.36 1558.82ZM1232.05 1337.92C1232.05 1361.36 1232.6 1383.89 1233.7 1405.51C1234.8 1427.12 1236.27 1447.82 1238.1 1467.6C1253.48 1437.93 1268.14 1406.42 1282.06 1373.09C1295.98 1339.38 1308.25 1305.5 1318.87 1271.43C1329.5 1236.99 1337.92 1202.92 1344.15 1169.22C1350.75 1135.15 1354.04 1102.73 1354.04 1071.96C1354.04 1028.73 1350.56 997.773 1343.6 979.089C1336.64 960.406 1327.3 951.064 1315.58 951.064C1307.88 951.064 1300.37 956.376 1293.05 967C1286.09 977.624 1279.49 992.094 1273.27 1010.41C1267.04 1028.73 1261.36 1050.34 1256.23 1075.25C1251.1 1100.16 1246.71 1126.91 1243.04 1155.48C1239.75 1184.06 1237 1213.91 1234.8 1245.05C1232.97 1276.19 1232.05 1307.15 1232.05 1337.92Z"/>
<path d="M1560.11 1279.67C1560.11 1293.59 1555.16 1305.5 1545.27 1315.39C1535.75 1324.91 1524.02 1329.68 1510.1 1329.68C1496.18 1329.68 1484.28 1324.91 1474.39 1315.39C1464.86 1305.5 1460.1 1293.59 1460.1 1279.67C1460.1 1272.71 1461.38 1266.3 1463.95 1260.44C1466.51 1254.21 1469.99 1248.9 1474.39 1244.5C1479.15 1239.74 1484.46 1236.08 1490.32 1233.51C1496.55 1230.95 1503.14 1229.67 1510.1 1229.67C1517.06 1229.67 1523.48 1230.95 1529.34 1233.51C1535.56 1236.08 1540.88 1239.74 1545.27 1244.5C1550.04 1248.9 1553.7 1254.21 1556.26 1260.44C1558.83 1266.3 1560.11 1272.71 1560.11 1279.67ZM1471.09 1601.68C1471.09 1548.93 1474.39 1496.36 1480.98 1443.97C1481.71 1438.85 1483.91 1434.45 1487.57 1430.79C1491.6 1426.76 1496.73 1424.74 1502.96 1424.74C1508.46 1424.74 1513.03 1426.94 1516.7 1431.34C1520.36 1435.36 1522.19 1440.13 1522.19 1445.62C1522.19 1447.82 1521.64 1454.41 1520.54 1465.4C1519.81 1476.4 1518.71 1489.58 1517.25 1504.97C1516.15 1519.99 1515.05 1536.11 1513.95 1553.33C1513.22 1570.18 1512.85 1585.75 1512.85 1600.03C1512.85 1619.45 1514.68 1635.2 1518.35 1647.29C1522.38 1659.02 1527.32 1668.17 1533.18 1674.77C1539.41 1681.36 1545.82 1685.76 1552.42 1687.96C1559.38 1690.15 1565.97 1691.25 1572.2 1691.25C1582.46 1691.25 1593.08 1687.59 1604.07 1680.26C1615.06 1672.94 1626.23 1662.68 1637.59 1649.49C1649.31 1636.3 1661.04 1620.55 1672.76 1602.23C1684.48 1583.55 1696.02 1562.85 1707.38 1540.14C1709.21 1536.47 1711.77 1533.73 1715.07 1531.9C1718.37 1529.7 1722.03 1528.6 1726.06 1528.6C1731.92 1528.6 1736.68 1530.8 1740.35 1535.19C1744.38 1539.59 1746.39 1544.35 1746.39 1549.48C1746.39 1553.14 1745.66 1556.26 1744.19 1558.82C1739.8 1567.25 1734.3 1577.5 1727.71 1589.59C1721.12 1601.68 1713.61 1614.14 1705.18 1626.96C1696.75 1639.78 1687.41 1652.6 1677.15 1665.43C1667.26 1677.88 1656.64 1689.24 1645.28 1699.5C1633.93 1709.39 1622.02 1717.45 1609.57 1723.67C1597.11 1729.9 1584.47 1733.02 1571.65 1733.02C1555.16 1733.02 1540.69 1729.54 1528.24 1722.58C1515.78 1715.61 1505.16 1706.27 1496.37 1694.55C1487.94 1682.83 1481.53 1669.09 1477.13 1653.34C1473.1 1637.22 1471.09 1620 1471.09 1601.68ZM1529.34 1279.67C1529.34 1274.54 1527.32 1270.15 1523.29 1266.48C1519.63 1262.45 1515.23 1260.44 1510.1 1260.44C1504.98 1260.44 1500.58 1262.45 1496.92 1266.48C1493.25 1270.15 1491.42 1274.54 1491.42 1279.67C1491.42 1284.8 1493.25 1289.2 1496.92 1292.86C1500.58 1296.52 1504.98 1298.35 1510.1 1298.35C1515.23 1298.35 1519.63 1296.52 1523.29 1292.86C1527.32 1289.2 1529.34 1284.8 1529.34 1279.67Z"/>
</mask>
<path d="M814.426 1764.89C883.298 1675.13 931.105 1600.58 957.848 1541.24C959.679 1537.21 962.06 1534.28 964.991 1532.44C968.288 1530.25 971.952 1529.15 975.981 1529.15C982.209 1529.15 987.338 1531.35 991.368 1535.74C995.397 1539.77 997.412 1544.53 997.412 1550.03C997.412 1552.59 996.863 1555.16 995.764 1557.72C979.645 1594.36 956.749 1635.2 927.075 1680.26C897.402 1725.32 859.852 1776.24 814.426 1833.03C814.426 1856.11 814.609 1879.19 814.975 1902.26C815.342 1925.34 815.525 1950.62 815.525 1978.1C815.525 2005.57 814.792 2032.68 813.327 2059.42C812.228 2086.53 810.03 2112.18 806.733 2136.36C803.436 2160.9 798.856 2183.43 792.995 2203.94C787.5 2224.83 780.173 2242.78 771.015 2257.8C762.222 2273.18 751.415 2285.09 738.593 2293.51C726.138 2302.31 711.301 2306.7 694.083 2306.7C669.539 2306.7 650.672 2297.36 637.484 2278.68C624.296 2259.99 617.702 2233.44 617.702 2199C617.702 2180.68 619.35 2160.72 622.647 2139.1C626.31 2117.86 631.439 2095.87 638.033 2073.16C644.627 2050.45 652.504 2027.37 661.662 2003.92C671.187 1980.84 681.628 1958.31 692.984 1936.33C704.341 1914.35 716.613 1893.29 729.801 1873.14C743.356 1852.99 757.643 1834.67 772.663 1818.19C773.029 1792.55 773.213 1767.09 773.213 1741.81C773.579 1716.53 774.128 1693.27 774.861 1672.02C763.871 1685.94 750.683 1696.93 735.296 1704.99C720.277 1713.05 705.257 1717.08 690.237 1717.08C677.415 1717.08 665.692 1714.7 655.068 1709.94C644.811 1704.81 636.018 1697.85 628.692 1689.05C621.365 1679.9 615.687 1669.27 611.657 1657.18C607.627 1645.09 605.612 1631.91 605.612 1617.62C605.612 1589.04 610.375 1563.95 619.9 1542.34C629.791 1520.36 642.246 1502.04 657.266 1487.39C672.286 1472.73 688.771 1461.74 706.722 1454.41C725.039 1447.09 742.623 1443.42 759.475 1443.42C770.831 1443.42 781.272 1444.89 790.797 1447.82C800.322 1450.75 808.381 1454.05 814.975 1457.71C821.936 1461.38 827.248 1464.86 830.911 1468.15C834.574 1471.45 836.589 1473.28 836.956 1473.65C840.985 1478.04 843 1482.99 843 1488.48C843 1493.98 840.985 1498.92 836.956 1503.32C832.926 1507.35 828.163 1509.37 822.668 1509.37C817.54 1509.37 812.594 1507.35 807.832 1503.32C806.366 1502.22 804.351 1500.76 801.787 1498.92C799.589 1496.73 796.475 1494.53 792.445 1492.33C788.782 1490.13 784.203 1488.3 778.708 1486.84C773.579 1485.37 767.351 1484.64 760.024 1484.64C749.034 1484.64 736.945 1487.2 723.757 1492.33C710.569 1497.09 698.296 1504.79 686.94 1515.41C675.583 1526.03 666.058 1539.77 658.365 1556.62C650.672 1573.11 646.825 1593.07 646.825 1616.52C646.825 1634.1 650.672 1648.39 658.365 1659.38C666.058 1670.01 677.964 1675.32 694.083 1675.32C701.776 1675.32 709.836 1673.12 718.262 1668.72C727.054 1664.33 735.48 1657.55 743.539 1648.39C751.599 1639.23 758.559 1627.69 764.42 1613.77C770.648 1599.85 775.044 1583.37 777.609 1564.32C778.341 1559.19 780.723 1554.97 784.752 1551.68C788.782 1548.01 793.544 1546.18 799.039 1546.18C805.267 1546.18 810.03 1548.38 813.327 1552.78C816.99 1557.17 818.822 1562.12 818.822 1567.61C818.822 1567.98 818.639 1573.66 818.272 1584.65C817.906 1595.27 817.54 1609.56 817.173 1627.51C816.807 1645.46 816.257 1666.34 815.525 1690.15C815.158 1713.6 814.792 1738.51 814.426 1764.89ZM772.663 1885.23C755.445 1909.04 739.876 1934.87 725.955 1962.71C712.034 1990.92 700.128 2019.31 690.237 2047.88C680.346 2076.46 672.652 2104.12 667.157 2130.86C662.029 2157.97 659.464 2182.15 659.464 2203.4C659.464 2216.95 660.563 2227.76 662.761 2235.82C665.326 2243.88 668.256 2250.1 671.553 2254.5C675.217 2258.9 679.063 2261.83 683.093 2263.29C687.489 2264.76 691.519 2265.49 695.182 2265.49C706.539 2265.49 716.43 2260.91 724.856 2251.75C733.282 2242.59 740.425 2230.32 746.287 2214.94C752.148 2199.92 756.91 2182.51 760.574 2162.73C764.237 2142.95 766.985 2122.43 768.816 2101.19C770.648 2080.31 771.93 2059.42 772.663 2038.54C773.396 2017.66 773.762 1998.43 773.762 1980.84C773.762 1965.09 773.762 1949.34 773.762 1933.59C773.762 1917.83 773.396 1901.71 772.663 1885.23Z" fill="#6D2128"/>
<path d="M1047.97 1279.67C1047.97 1293.59 1043.02 1305.5 1033.13 1315.39C1023.61 1324.91 1011.88 1329.68 997.962 1329.68C984.041 1329.68 972.135 1324.91 962.244 1315.39C952.719 1305.5 947.956 1293.59 947.956 1279.67C947.956 1272.71 949.239 1266.3 951.803 1260.44C954.367 1254.21 957.848 1248.9 962.244 1244.5C967.006 1239.74 972.318 1236.08 978.179 1233.51C984.407 1230.95 991.001 1229.67 997.962 1229.67C1004.92 1229.67 1011.33 1230.95 1017.19 1233.51C1023.42 1236.08 1028.73 1239.74 1033.13 1244.5C1037.89 1248.9 1041.56 1254.21 1044.12 1260.44C1046.68 1266.3 1047.97 1272.71 1047.97 1279.67ZM958.947 1601.68C958.947 1548.93 962.244 1496.36 968.838 1443.97C969.57 1438.85 971.768 1434.45 975.432 1430.79C979.462 1426.76 984.59 1424.74 990.818 1424.74C996.313 1424.74 1000.89 1426.94 1004.56 1431.34C1008.22 1435.36 1010.05 1440.13 1010.05 1445.62C1010.05 1447.82 1009.5 1454.41 1008.4 1465.4C1007.67 1476.4 1006.57 1489.58 1005.11 1504.97C1004.01 1519.99 1002.91 1536.11 1001.81 1553.33C1001.08 1570.18 1000.71 1585.75 1000.71 1600.03C1000.71 1619.45 1002.54 1635.2 1006.2 1647.29C1010.23 1659.02 1015.18 1668.17 1021.04 1674.77C1027.27 1681.36 1033.68 1685.76 1040.27 1687.96C1047.23 1690.15 1053.83 1691.25 1060.06 1691.25C1070.31 1691.25 1080.94 1687.59 1091.93 1680.26C1102.92 1672.94 1114.09 1662.68 1125.45 1649.49C1137.17 1636.3 1148.89 1620.55 1160.62 1602.23C1172.34 1583.55 1183.88 1562.85 1195.24 1540.14C1197.07 1536.47 1199.63 1533.73 1202.93 1531.9C1206.23 1529.7 1209.89 1528.6 1213.92 1528.6C1219.78 1528.6 1224.54 1530.8 1228.21 1535.19C1232.24 1539.59 1234.25 1544.35 1234.25 1549.48C1234.25 1553.14 1233.52 1556.26 1232.05 1558.82C1227.66 1567.25 1222.16 1577.5 1215.57 1589.59C1208.97 1601.68 1201.46 1614.14 1193.04 1626.96C1184.61 1639.78 1175.27 1652.6 1165.01 1665.43C1155.12 1677.88 1144.5 1689.24 1133.14 1699.5C1121.78 1709.39 1109.88 1717.45 1097.42 1723.67C1084.97 1729.9 1072.33 1733.02 1059.51 1733.02C1043.02 1733.02 1028.55 1729.54 1016.1 1722.58C1003.64 1715.61 993.016 1706.27 984.224 1694.55C975.798 1682.83 969.387 1669.09 964.991 1653.34C960.961 1637.22 958.947 1620 958.947 1601.68ZM1017.19 1279.67C1017.19 1274.54 1015.18 1270.15 1011.15 1266.48C1007.49 1262.45 1003.09 1260.44 997.962 1260.44C992.833 1260.44 988.437 1262.45 984.773 1266.48C981.11 1270.15 979.278 1274.54 979.278 1279.67C979.278 1284.8 981.11 1289.2 984.773 1292.86C988.437 1296.52 992.833 1298.35 997.962 1298.35C1003.09 1298.35 1007.49 1296.52 1011.15 1292.86C1015.18 1289.2 1017.19 1284.8 1017.19 1279.67Z" fill="#6D2128"/>
<path d="M1507.36 1558.82C1503.33 1567.25 1498.2 1577.32 1491.97 1589.04C1486.11 1600.4 1479.33 1612.31 1471.64 1624.76C1463.95 1637.22 1455.34 1649.67 1445.81 1662.13C1436.29 1674.22 1425.85 1685.21 1414.49 1695.1C1403.5 1704.62 1391.59 1712.32 1378.77 1718.18C1366.32 1724.41 1352.94 1727.52 1338.66 1727.52C1316.68 1727.52 1297.81 1720.74 1282.06 1707.19C1266.31 1693.63 1252.93 1675.87 1241.94 1653.89C1230.95 1631.91 1221.98 1606.99 1215.02 1579.15C1208.42 1550.95 1203.29 1522.37 1199.63 1493.43C1195.97 1464.12 1193.4 1435.73 1191.94 1408.26C1190.84 1380.78 1190.29 1356.42 1190.29 1335.17C1190.29 1304.4 1191.21 1272.53 1193.04 1239.56C1195.24 1206.59 1198.53 1174.35 1202.93 1142.84C1207.32 1111.34 1212.82 1081.48 1219.41 1053.27C1226.37 1025.06 1234.43 1000.34 1243.59 979.089C1253.12 957.842 1263.92 940.99 1276.01 928.535C1288.1 916.079 1301.84 909.851 1317.23 909.851C1329.32 909.851 1340.12 912.782 1349.65 918.643C1359.54 924.138 1367.78 933.297 1374.38 946.119C1380.97 958.941 1386.1 975.609 1389.76 996.124C1393.42 1016.64 1395.26 1041.73 1395.26 1071.41C1395.26 1108.04 1391.41 1145.96 1383.72 1185.16C1376.02 1223.99 1365.58 1263.19 1352.4 1302.75C1339.21 1342.31 1323.64 1381.88 1305.69 1421.44C1287.74 1460.64 1268.5 1498.92 1247.99 1536.29C1257.15 1582.82 1269.42 1619.45 1284.81 1646.19C1300.19 1672.57 1318.69 1685.76 1340.31 1685.76C1354.96 1685.76 1369.06 1680.08 1382.62 1668.72C1396.17 1657 1408.63 1643.26 1419.98 1627.51C1431.34 1611.76 1441.23 1595.82 1449.66 1579.7C1458.45 1563.22 1465.23 1550.03 1469.99 1540.14C1471.82 1536.47 1474.39 1533.73 1477.68 1531.9C1480.98 1529.7 1484.64 1528.6 1488.67 1528.6C1494.9 1528.6 1499.85 1530.8 1503.51 1535.19C1507.54 1539.59 1509.55 1544.53 1509.55 1550.03C1509.55 1552.23 1508.82 1555.16 1507.36 1558.82ZM1232.05 1337.92C1232.05 1361.36 1232.6 1383.89 1233.7 1405.51C1234.8 1427.12 1236.27 1447.82 1238.1 1467.6C1253.48 1437.93 1268.14 1406.42 1282.06 1373.09C1295.98 1339.38 1308.25 1305.5 1318.87 1271.43C1329.5 1236.99 1337.92 1202.92 1344.15 1169.22C1350.75 1135.15 1354.04 1102.73 1354.04 1071.96C1354.04 1028.73 1350.56 997.773 1343.6 979.089C1336.64 960.406 1327.3 951.064 1315.58 951.064C1307.88 951.064 1300.37 956.376 1293.05 967C1286.09 977.624 1279.49 992.094 1273.27 1010.41C1267.04 1028.73 1261.36 1050.34 1256.23 1075.25C1251.1 1100.16 1246.71 1126.91 1243.04 1155.48C1239.75 1184.06 1237 1213.91 1234.8 1245.05C1232.97 1276.19 1232.05 1307.15 1232.05 1337.92Z" fill="#6D2128"/>
<path d="M1560.11 1279.67C1560.11 1293.59 1555.16 1305.5 1545.27 1315.39C1535.75 1324.91 1524.02 1329.68 1510.1 1329.68C1496.18 1329.68 1484.28 1324.91 1474.39 1315.39C1464.86 1305.5 1460.1 1293.59 1460.1 1279.67C1460.1 1272.71 1461.38 1266.3 1463.95 1260.44C1466.51 1254.21 1469.99 1248.9 1474.39 1244.5C1479.15 1239.74 1484.46 1236.08 1490.32 1233.51C1496.55 1230.95 1503.14 1229.67 1510.1 1229.67C1517.06 1229.67 1523.48 1230.95 1529.34 1233.51C1535.56 1236.08 1540.88 1239.74 1545.27 1244.5C1550.04 1248.9 1553.7 1254.21 1556.26 1260.44C1558.83 1266.3 1560.11 1272.71 1560.11 1279.67ZM1471.09 1601.68C1471.09 1548.93 1474.39 1496.36 1480.98 1443.97C1481.71 1438.85 1483.91 1434.45 1487.57 1430.79C1491.6 1426.76 1496.73 1424.74 1502.96 1424.74C1508.46 1424.74 1513.03 1426.94 1516.7 1431.34C1520.36 1435.36 1522.19 1440.13 1522.19 1445.62C1522.19 1447.82 1521.64 1454.41 1520.54 1465.4C1519.81 1476.4 1518.71 1489.58 1517.25 1504.97C1516.15 1519.99 1515.05 1536.11 1513.95 1553.33C1513.22 1570.18 1512.85 1585.75 1512.85 1600.03C1512.85 1619.45 1514.68 1635.2 1518.35 1647.29C1522.38 1659.02 1527.32 1668.17 1533.18 1674.77C1539.41 1681.36 1545.82 1685.76 1552.42 1687.96C1559.38 1690.15 1565.97 1691.25 1572.2 1691.25C1582.46 1691.25 1593.08 1687.59 1604.07 1680.26C1615.06 1672.94 1626.23 1662.68 1637.59 1649.49C1649.31 1636.3 1661.04 1620.55 1672.76 1602.23C1684.48 1583.55 1696.02 1562.85 1707.38 1540.14C1709.21 1536.47 1711.77 1533.73 1715.07 1531.9C1718.37 1529.7 1722.03 1528.6 1726.06 1528.6C1731.92 1528.6 1736.68 1530.8 1740.35 1535.19C1744.38 1539.59 1746.39 1544.35 1746.39 1549.48C1746.39 1553.14 1745.66 1556.26 1744.19 1558.82C1739.8 1567.25 1734.3 1577.5 1727.71 1589.59C1721.12 1601.68 1713.61 1614.14 1705.18 1626.96C1696.75 1639.78 1687.41 1652.6 1677.15 1665.43C1667.26 1677.88 1656.64 1689.24 1645.28 1699.5C1633.93 1709.39 1622.02 1717.45 1609.57 1723.67C1597.11 1729.9 1584.47 1733.02 1571.65 1733.02C1555.16 1733.02 1540.69 1729.54 1528.24 1722.58C1515.78 1715.61 1505.16 1706.27 1496.37 1694.55C1487.94 1682.83 1481.53 1669.09 1477.13 1653.34C1473.1 1637.22 1471.09 1620 1471.09 1601.68ZM1529.34 1279.67C1529.34 1274.54 1527.32 1270.15 1523.29 1266.48C1519.63 1262.45 1515.23 1260.44 1510.1 1260.44C1504.98 1260.44 1500.58 1262.45 1496.92 1266.48C1493.25 1270.15 1491.42 1274.54 1491.42 1279.67C1491.42 1284.8 1493.25 1289.2 1496.92 1292.86C1500.58 1296.52 1504.98 1298.35 1510.1 1298.35C1515.23 1298.35 1519.63 1296.52 1523.29 1292.86C1527.32 1289.2 1529.34 1284.8 1529.34 1279.67Z" fill="#6D2128"/>
<path d="M814.426 1764.89C883.298 1675.13 931.105 1600.58 957.848 1541.24C959.679 1537.21 962.06 1534.28 964.991 1532.44C968.288 1530.25 971.952 1529.15 975.981 1529.15C982.209 1529.15 987.338 1531.35 991.368 1535.74C995.397 1539.77 997.412 1544.53 997.412 1550.03C997.412 1552.59 996.863 1555.16 995.764 1557.72C979.645 1594.36 956.749 1635.2 927.075 1680.26C897.402 1725.32 859.852 1776.24 814.426 1833.03C814.426 1856.11 814.609 1879.19 814.975 1902.26C815.342 1925.34 815.525 1950.62 815.525 1978.1C815.525 2005.57 814.792 2032.68 813.327 2059.42C812.228 2086.53 810.03 2112.18 806.733 2136.36C803.436 2160.9 798.856 2183.43 792.995 2203.94C787.5 2224.83 780.173 2242.78 771.015 2257.8C762.222 2273.18 751.415 2285.09 738.593 2293.51C726.138 2302.31 711.301 2306.7 694.083 2306.7C669.539 2306.7 650.672 2297.36 637.484 2278.68C624.296 2259.99 617.702 2233.44 617.702 2199C617.702 2180.68 619.35 2160.72 622.647 2139.1C626.31 2117.86 631.439 2095.87 638.033 2073.16C644.627 2050.45 652.504 2027.37 661.662 2003.92C671.187 1980.84 681.628 1958.31 692.984 1936.33C704.341 1914.35 716.613 1893.29 729.801 1873.14C743.356 1852.99 757.643 1834.67 772.663 1818.19C773.029 1792.55 773.213 1767.09 773.213 1741.81C773.579 1716.53 774.128 1693.27 774.861 1672.02C763.871 1685.94 750.683 1696.93 735.296 1704.99C720.277 1713.05 705.257 1717.08 690.237 1717.08C677.415 1717.08 665.692 1714.7 655.068 1709.94C644.811 1704.81 636.018 1697.85 628.692 1689.05C621.365 1679.9 615.687 1669.27 611.657 1657.18C607.627 1645.09 605.612 1631.91 605.612 1617.62C605.612 1589.04 610.375 1563.95 619.9 1542.34C629.791 1520.36 642.246 1502.04 657.266 1487.39C672.286 1472.73 688.771 1461.74 706.722 1454.41C725.039 1447.09 742.623 1443.42 759.475 1443.42C770.831 1443.42 781.272 1444.89 790.797 1447.82C800.322 1450.75 808.381 1454.05 814.975 1457.71C821.936 1461.38 827.248 1464.86 830.911 1468.15C834.574 1471.45 836.589 1473.28 836.956 1473.65C840.985 1478.04 843 1482.99 843 1488.48C843 1493.98 840.985 1498.92 836.956 1503.32C832.926 1507.35 828.163 1509.37 822.668 1509.37C817.54 1509.37 812.594 1507.35 807.832 1503.32C806.366 1502.22 804.351 1500.76 801.787 1498.92C799.589 1496.73 796.475 1494.53 792.445 1492.33C788.782 1490.13 784.203 1488.3 778.708 1486.84C773.579 1485.37 767.351 1484.64 760.024 1484.64C749.034 1484.64 736.945 1487.2 723.757 1492.33C710.569 1497.09 698.296 1504.79 686.94 1515.41C675.583 1526.03 666.058 1539.77 658.365 1556.62C650.672 1573.11 646.825 1593.07 646.825 1616.52C646.825 1634.1 650.672 1648.39 658.365 1659.38C666.058 1670.01 677.964 1675.32 694.083 1675.32C701.776 1675.32 709.836 1673.12 718.262 1668.72C727.054 1664.33 735.48 1657.55 743.539 1648.39C751.599 1639.23 758.559 1627.69 764.42 1613.77C770.648 1599.85 775.044 1583.37 777.609 1564.32C778.341 1559.19 780.723 1554.97 784.752 1551.68C788.782 1548.01 793.544 1546.18 799.039 1546.18C805.267 1546.18 810.03 1548.38 813.327 1552.78C816.99 1557.17 818.822 1562.12 818.822 1567.61C818.822 1567.98 818.639 1573.66 818.272 1584.65C817.906 1595.27 817.54 1609.56 817.173 1627.51C816.807 1645.46 816.257 1666.34 815.525 1690.15C815.158 1713.6 814.792 1738.51 814.426 1764.89ZM772.663 1885.23C755.445 1909.04 739.876 1934.87 725.955 1962.71C712.034 1990.92 700.128 2019.31 690.237 2047.88C680.346 2076.46 672.652 2104.12 667.157 2130.86C662.029 2157.97 659.464 2182.15 659.464 2203.4C659.464 2216.95 660.563 2227.76 662.761 2235.82C665.326 2243.88 668.256 2250.1 671.553 2254.5C675.217 2258.9 679.063 2261.83 683.093 2263.29C687.489 2264.76 691.519 2265.49 695.182 2265.49C706.539 2265.49 716.43 2260.91 724.856 2251.75C733.282 2242.59 740.425 2230.32 746.287 2214.94C752.148 2199.92 756.91 2182.51 760.574 2162.73C764.237 2142.95 766.985 2122.43 768.816 2101.19C770.648 2080.31 771.93 2059.42 772.663 2038.54C773.396 2017.66 773.762 1998.43 773.762 1980.84C773.762 1965.09 773.762 1949.34 773.762 1933.59C773.762 1917.83 773.396 1901.71 772.663 1885.23Z" stroke="#6D2128" stroke-width="2" mask="url(#path-4-inside-2)"/>
<path d="M1047.97 1279.67C1047.97 1293.59 1043.02 1305.5 1033.13 1315.39C1023.61 1324.91 1011.88 1329.68 997.962 1329.68C984.041 1329.68 972.135 1324.91 962.244 1315.39C952.719 1305.5 947.956 1293.59 947.956 1279.67C947.956 1272.71 949.239 1266.3 951.803 1260.44C954.367 1254.21 957.848 1248.9 962.244 1244.5C967.006 1239.74 972.318 1236.08 978.179 1233.51C984.407 1230.95 991.001 1229.67 997.962 1229.67C1004.92 1229.67 1011.33 1230.95 1017.19 1233.51C1023.42 1236.08 1028.73 1239.74 1033.13 1244.5C1037.89 1248.9 1041.56 1254.21 1044.12 1260.44C1046.68 1266.3 1047.97 1272.71 1047.97 1279.67ZM958.947 1601.68C958.947 1548.93 962.244 1496.36 968.838 1443.97C969.57 1438.85 971.768 1434.45 975.432 1430.79C979.462 1426.76 984.59 1424.74 990.818 1424.74C996.313 1424.74 1000.89 1426.94 1004.56 1431.34C1008.22 1435.36 1010.05 1440.13 1010.05 1445.62C1010.05 1447.82 1009.5 1454.41 1008.4 1465.4C1007.67 1476.4 1006.57 1489.58 1005.11 1504.97C1004.01 1519.99 1002.91 1536.11 1001.81 1553.33C1001.08 1570.18 1000.71 1585.75 1000.71 1600.03C1000.71 1619.45 1002.54 1635.2 1006.2 1647.29C1010.23 1659.02 1015.18 1668.17 1021.04 1674.77C1027.27 1681.36 1033.68 1685.76 1040.27 1687.96C1047.23 1690.15 1053.83 1691.25 1060.06 1691.25C1070.31 1691.25 1080.94 1687.59 1091.93 1680.26C1102.92 1672.94 1114.09 1662.68 1125.45 1649.49C1137.17 1636.3 1148.89 1620.55 1160.62 1602.23C1172.34 1583.55 1183.88 1562.85 1195.24 1540.14C1197.07 1536.47 1199.63 1533.73 1202.93 1531.9C1206.23 1529.7 1209.89 1528.6 1213.92 1528.6C1219.78 1528.6 1224.54 1530.8 1228.21 1535.19C1232.24 1539.59 1234.25 1544.35 1234.25 1549.48C1234.25 1553.14 1233.52 1556.26 1232.05 1558.82C1227.66 1567.25 1222.16 1577.5 1215.57 1589.59C1208.97 1601.68 1201.46 1614.14 1193.04 1626.96C1184.61 1639.78 1175.27 1652.6 1165.01 1665.43C1155.12 1677.88 1144.5 1689.24 1133.14 1699.5C1121.78 1709.39 1109.88 1717.45 1097.42 1723.67C1084.97 1729.9 1072.33 1733.02 1059.51 1733.02C1043.02 1733.02 1028.55 1729.54 1016.1 1722.58C1003.64 1715.61 993.016 1706.27 984.224 1694.55C975.798 1682.83 969.387 1669.09 964.991 1653.34C960.961 1637.22 958.947 1620 958.947 1601.68ZM1017.19 1279.67C1017.19 1274.54 1015.18 1270.15 1011.15 1266.48C1007.49 1262.45 1003.09 1260.44 997.962 1260.44C992.833 1260.44 988.437 1262.45 984.773 1266.48C981.11 1270.15 979.278 1274.54 979.278 1279.67C979.278 1284.8 981.11 1289.2 984.773 1292.86C988.437 1296.52 992.833 1298.35 997.962 1298.35C1003.09 1298.35 1007.49 1296.52 1011.15 1292.86C1015.18 1289.2 1017.19 1284.8 1017.19 1279.67Z" stroke="#6D2128" stroke-width="2" mask="url(#path-4-inside-2)"/>
<path d="M1507.36 1558.82C1503.33 1567.25 1498.2 1577.32 1491.97 1589.04C1486.11 1600.4 1479.33 1612.31 1471.64 1624.76C1463.95 1637.22 1455.34 1649.67 1445.81 1662.13C1436.29 1674.22 1425.85 1685.21 1414.49 1695.1C1403.5 1704.62 1391.59 1712.32 1378.77 1718.18C1366.32 1724.41 1352.94 1727.52 1338.66 1727.52C1316.68 1727.52 1297.81 1720.74 1282.06 1707.19C1266.31 1693.63 1252.93 1675.87 1241.94 1653.89C1230.95 1631.91 1221.98 1606.99 1215.02 1579.15C1208.42 1550.95 1203.29 1522.37 1199.63 1493.43C1195.97 1464.12 1193.4 1435.73 1191.94 1408.26C1190.84 1380.78 1190.29 1356.42 1190.29 1335.17C1190.29 1304.4 1191.21 1272.53 1193.04 1239.56C1195.24 1206.59 1198.53 1174.35 1202.93 1142.84C1207.32 1111.34 1212.82 1081.48 1219.41 1053.27C1226.37 1025.06 1234.43 1000.34 1243.59 979.089C1253.12 957.842 1263.92 940.99 1276.01 928.535C1288.1 916.079 1301.84 909.851 1317.23 909.851C1329.32 909.851 1340.12 912.782 1349.65 918.643C1359.54 924.138 1367.78 933.297 1374.38 946.119C1380.97 958.941 1386.1 975.609 1389.76 996.124C1393.42 1016.64 1395.26 1041.73 1395.26 1071.41C1395.26 1108.04 1391.41 1145.96 1383.72 1185.16C1376.02 1223.99 1365.58 1263.19 1352.4 1302.75C1339.21 1342.31 1323.64 1381.88 1305.69 1421.44C1287.74 1460.64 1268.5 1498.92 1247.99 1536.29C1257.15 1582.82 1269.42 1619.45 1284.81 1646.19C1300.19 1672.57 1318.69 1685.76 1340.31 1685.76C1354.96 1685.76 1369.06 1680.08 1382.62 1668.72C1396.17 1657 1408.63 1643.26 1419.98 1627.51C1431.34 1611.76 1441.23 1595.82 1449.66 1579.7C1458.45 1563.22 1465.23 1550.03 1469.99 1540.14C1471.82 1536.47 1474.39 1533.73 1477.68 1531.9C1480.98 1529.7 1484.64 1528.6 1488.67 1528.6C1494.9 1528.6 1499.85 1530.8 1503.51 1535.19C1507.54 1539.59 1509.55 1544.53 1509.55 1550.03C1509.55 1552.23 1508.82 1555.16 1507.36 1558.82ZM1232.05 1337.92C1232.05 1361.36 1232.6 1383.89 1233.7 1405.51C1234.8 1427.12 1236.27 1447.82 1238.1 1467.6C1253.48 1437.93 1268.14 1406.42 1282.06 1373.09C1295.98 1339.38 1308.25 1305.5 1318.87 1271.43C1329.5 1236.99 1337.92 1202.92 1344.15 1169.22C1350.75 1135.15 1354.04 1102.73 1354.04 1071.96C1354.04 1028.73 1350.56 997.773 1343.6 979.089C1336.64 960.406 1327.3 951.064 1315.58 951.064C1307.88 951.064 1300.37 956.376 1293.05 967C1286.09 977.624 1279.49 992.094 1273.27 1010.41C1267.04 1028.73 1261.36 1050.34 1256.23 1075.25C1251.1 1100.16 1246.71 1126.91 1243.04 1155.48C1239.75 1184.06 1237 1213.91 1234.8 1245.05C1232.97 1276.19 1232.05 1307.15 1232.05 1337.92Z" stroke="#6D2128" stroke-width="2" mask="url(#path-4-inside-2)"/>
<path d="M1560.11 1279.67C1560.11 1293.59 1555.16 1305.5 1545.27 1315.39C1535.75 1324.91 1524.02 1329.68 1510.1 1329.68C1496.18 1329.68 1484.28 1324.91 1474.39 1315.39C1464.86 1305.5 1460.1 1293.59 1460.1 1279.67C1460.1 1272.71 1461.38 1266.3 1463.95 1260.44C1466.51 1254.21 1469.99 1248.9 1474.39 1244.5C1479.15 1239.74 1484.46 1236.08 1490.32 1233.51C1496.55 1230.95 1503.14 1229.67 1510.1 1229.67C1517.06 1229.67 1523.48 1230.95 1529.34 1233.51C1535.56 1236.08 1540.88 1239.74 1545.27 1244.5C1550.04 1248.9 1553.7 1254.21 1556.26 1260.44C1558.83 1266.3 1560.11 1272.71 1560.11 1279.67ZM1471.09 1601.68C1471.09 1548.93 1474.39 1496.36 1480.98 1443.97C1481.71 1438.85 1483.91 1434.45 1487.57 1430.79C1491.6 1426.76 1496.73 1424.74 1502.96 1424.74C1508.46 1424.74 1513.03 1426.94 1516.7 1431.34C1520.36 1435.36 1522.19 1440.13 1522.19 1445.62C1522.19 1447.82 1521.64 1454.41 1520.54 1465.4C1519.81 1476.4 1518.71 1489.58 1517.25 1504.97C1516.15 1519.99 1515.05 1536.11 1513.95 1553.33C1513.22 1570.18 1512.85 1585.75 1512.85 1600.03C1512.85 1619.45 1514.68 1635.2 1518.35 1647.29C1522.38 1659.02 1527.32 1668.17 1533.18 1674.77C1539.41 1681.36 1545.82 1685.76 1552.42 1687.96C1559.38 1690.15 1565.97 1691.25 1572.2 1691.25C1582.46 1691.25 1593.08 1687.59 1604.07 1680.26C1615.06 1672.94 1626.23 1662.68 1637.59 1649.49C1649.31 1636.3 1661.04 1620.55 1672.76 1602.23C1684.48 1583.55 1696.02 1562.85 1707.38 1540.14C1709.21 1536.47 1711.77 1533.73 1715.07 1531.9C1718.37 1529.7 1722.03 1528.6 1726.06 1528.6C1731.92 1528.6 1736.68 1530.8 1740.35 1535.19C1744.38 1539.59 1746.39 1544.35 1746.39 1549.48C1746.39 1553.14 1745.66 1556.26 1744.19 1558.82C1739.8 1567.25 1734.3 1577.5 1727.71 1589.59C1721.12 1601.68 1713.61 1614.14 1705.18 1626.96C1696.75 1639.78 1687.41 1652.6 1677.15 1665.43C1667.26 1677.88 1656.64 1689.24 1645.28 1699.5C1633.93 1709.39 1622.02 1717.45 1609.57 1723.67C1597.11 1729.9 1584.47 1733.02 1571.65 1733.02C1555.16 1733.02 1540.69 1729.54 1528.24 1722.58C1515.78 1715.61 1505.16 1706.27 1496.37 1694.55C1487.94 1682.83 1481.53 1669.09 1477.13 1653.34C1473.1 1637.22 1471.09 1620 1471.09 1601.68ZM1529.34 1279.67C1529.34 1274.54 1527.32 1270.15 1523.29 1266.48C1519.63 1262.45 1515.23 1260.44 1510.1 1260.44C1504.98 1260.44 1500.58 1262.45 1496.92 1266.48C1493.25 1270.15 1491.42 1274.54 1491.42 1279.67C1491.42 1284.8 1493.25 1289.2 1496.92 1292.86C1500.58 1296.52 1504.98 1298.35 1510.1 1298.35C1515.23 1298.35 1519.63 1296.52 1523.29 1292.86C1527.32 1289.2 1529.34 1284.8 1529.34 1279.67Z" stroke="#6D2128" stroke-width="2" mask="url(#path-4-inside-2)"/>
</svg>
